<svg width="129" height="130" viewBox="0 0 129 130" fill="none" xmlns="http://www.w3.org/2000/svg">
<path fill-rule="evenodd" clip-rule="evenodd" d="M89.4363 89.1088L60.9392 105.562C60.0068 106.1 58.658 106.507 56.9487 106.785C55.25 107.061 53.2483 107.2 51.0456 107.234C46.6402 107.302 41.4958 106.948 36.4878 106.457C32.2137 106.038 28.0568 105.521 24.5594 105.086C23.9606 105.011 23.3811 104.939 22.8237 104.87C20.9209 104.636 19.2692 104.439 17.9891 104.318C17.3492 104.257 16.7933 104.215 16.3402 104.196C15.9039 104.179 15.5083 104.18 15.2183 104.229C13.5037 104.514 11.953 105.061 10.837 105.531C10.3757 105.726 9.98547 105.909 9.68503 106.058L2.27835 93.2289C5.45031 91.2435 10.5037 88.5791 16.0619 86.6051C22.0196 84.4893 28.4414 83.209 33.7248 84.2968C41.7797 85.9551 48.648 87.7756 53.1946 88.9807C54.8181 89.4111 56.1456 89.7629 57.1253 90.0009C58.4241 90.4848 59.2367 91.0823 59.7645 91.7013C60.2976 92.3264 60.5806 93.0207 60.7483 93.7551C60.8976 94.409 60.6218 95.2564 59.8564 95.9642C59.1074 96.6567 57.9453 97.1474 56.5257 97.0558C52.3396 96.7858 48.0583 96.4648 44.392 96.0717C40.7022 95.6761 37.707 95.2143 36.0499 94.6802L35.5737 96.1579C37.4038 96.7477 40.551 97.2214 44.2265 97.6154C47.9256 98.012 52.2326 98.3347 56.4257 98.6051C58.2647 98.7237 59.8453 98.0889 60.9104 97.1041C61.6481 96.422 62.1685 95.5358 62.3055 94.6026C63.0729 94.7115 63.8468 94.6328 64.5254 94.485C65.5464 94.2627 66.4553 93.8615 66.9999 93.5471L67.0159 93.5378L67.0314 93.5278C69.292 92.0751 73.0295 89.9396 76.8705 88.2683C78.7908 87.4327 80.7211 86.7201 82.4955 86.2651C84.2819 85.8069 85.8506 85.6256 87.0717 85.8007C88.3864 85.9891 89.2092 86.2818 89.7014 86.5848C90.1751 86.8765 90.308 87.1524 90.3441 87.3518C90.3852 87.5792 90.3294 87.872 90.1412 88.2196C89.9675 88.5402 89.7099 88.852 89.4363 89.1088ZM62.1541 92.9895C61.9325 92.2161 61.5708 91.4268 60.9459 90.694C60.2077 89.8283 59.1426 89.0886 57.6202 88.5286L57.5783 88.5132L57.5348 88.5027C56.5887 88.2738 55.2752 87.9256 53.6528 87.4956C49.109 86.2912 42.1423 84.4447 34.0378 82.7761C28.3346 81.6019 21.5852 82.996 15.5423 85.1421C9.47848 87.2956 4.00922 90.2489 0.812118 92.322L0.193617 92.7231L9.10116 108.151L9.77293 107.764L9.77723 107.761L9.79627 107.75C9.81394 107.74 9.84151 107.725 9.87844 107.705C9.95232 107.665 10.0636 107.605 10.2082 107.532C10.4976 107.385 10.9192 107.182 11.4405 106.962C12.4868 106.52 13.9163 106.019 15.473 105.76C15.5919 105.74 15.8476 105.73 16.2774 105.747C16.6904 105.764 17.2151 105.804 17.8429 105.863C19.0979 105.982 20.7288 106.176 22.6336 106.411C23.1887 106.48 23.7665 106.551 24.3643 106.626C27.8611 107.061 32.0403 107.581 36.3362 108.002C41.3643 108.495 46.5768 108.856 51.0696 108.787C53.3161 108.752 55.3988 108.61 57.1975 108.317C58.9857 108.027 60.5471 107.581 61.7155 106.906L90.3582 90.3693L90.4192 90.3141C90.8117 89.9596 91.2177 89.492 91.5064 88.9589C91.7926 88.4304 91.9977 87.7714 91.8719 87.0755C91.7409 86.3518 91.279 85.733 90.5154 85.2628C89.7703 84.804 88.7136 84.4676 87.292 84.2638C85.7769 84.0466 83.9783 84.282 82.1098 84.7612C80.2293 85.2435 78.2173 85.9891 76.2511 86.8447C72.3285 88.5515 68.5259 90.7232 66.2083 92.2113C65.7851 92.4533 65.0336 92.7854 64.195 92.968C63.4749 93.1249 62.762 93.1562 62.1541 92.9895Z" fill="#009FDF"/>
<path fill-rule="evenodd" clip-rule="evenodd" d="M39.4724 40.8913L67.9694 24.4385C68.9019 23.9002 70.2507 23.4927 71.96 23.2151C73.6587 22.9393 75.6604 22.7998 77.8631 22.7658C82.2685 22.6978 87.4129 23.0521 92.4209 23.5433C96.695 23.9625 100.852 24.4795 104.349 24.9145C104.948 24.989 105.528 25.0611 106.085 25.1299C107.988 25.3646 109.64 25.5615 110.92 25.6826C111.559 25.7431 112.115 25.7856 112.568 25.8039C113.005 25.8216 113.4 25.8198 113.69 25.7716C115.405 25.4864 116.956 24.9395 118.072 24.4687C118.533 24.274 118.923 24.091 119.224 23.9425L126.63 36.7713C123.458 38.7566 118.405 41.4211 112.847 43.395C106.889 45.5108 100.467 46.7911 95.1839 45.7034C87.129 44.045 80.2607 42.2245 75.7141 41.0194C74.0906 40.5891 72.7631 40.2372 71.7834 39.9992C70.4846 39.5154 69.672 38.9178 69.1441 38.2988C68.6111 37.6737 68.3281 36.9794 68.1604 36.2451C68.0111 35.5911 68.2869 34.7437 69.0523 34.036C69.8013 33.3434 70.9633 32.8527 72.383 32.9443C76.5691 33.2143 80.8504 33.5353 84.5167 33.9284C88.2065 34.324 91.2016 34.7859 92.8588 35.3199L93.335 33.8422C91.5049 33.2524 88.3577 32.7788 84.6822 32.3847C80.9831 31.9881 76.6761 31.6654 72.4829 31.395C70.644 31.2764 69.0634 31.9112 67.9983 32.896C67.2606 33.5782 66.7401 34.4643 66.6032 35.3975C65.8358 35.2887 65.0619 35.3673 64.3833 35.5151C63.3623 35.7375 62.4533 36.1387 61.9088 36.4531L61.8928 36.4623L61.8773 36.4723C59.6167 37.925 55.8792 40.0605 52.0382 41.7318C50.1179 42.5674 48.1875 43.28 46.4132 43.7351C44.6268 44.1932 43.0581 44.3745 41.837 44.1995C40.5223 44.011 39.6995 43.7183 39.2073 43.4153C38.7336 43.1236 38.6007 42.8477 38.5646 42.6483C38.5235 42.4209 38.5793 42.1282 38.7675 41.7805C38.9412 41.4599 39.1988 41.1481 39.4724 40.8913ZM66.7546 37.0106C66.9762 37.784 67.3379 38.5733 67.9628 39.3061C68.701 40.1719 69.7661 40.9115 71.2885 41.4715L71.3304 41.4869L71.3739 41.4974C72.3199 41.7264 73.6335 42.0745 75.2559 42.5046C79.7997 43.7089 86.7664 45.5555 94.8709 47.224C100.574 48.3982 107.323 47.0041 113.366 44.858C119.43 42.7045 124.899 39.7512 128.097 37.6781L128.715 37.2771L119.808 21.8487L119.136 22.2366L119.131 22.2391L119.112 22.2498C119.095 22.2597 119.067 22.2751 119.03 22.2952C118.956 22.3354 118.845 22.3947 118.701 22.4682C118.411 22.6152 117.989 22.8183 117.468 23.0382C116.422 23.4797 114.992 23.9811 113.436 24.2401C113.317 24.2598 113.061 24.27 112.631 24.2526C112.218 24.2359 111.694 24.1963 111.066 24.137C109.811 24.0183 108.18 23.824 106.275 23.589C105.72 23.5205 105.142 23.4486 104.544 23.3743C101.048 22.9393 96.8684 22.4195 92.5725 21.9981C87.5444 21.505 82.3319 21.1441 77.8391 21.2135C75.5926 21.2482 73.5099 21.3906 71.7112 21.6826C69.923 21.973 68.3615 22.4194 67.1932 23.094L38.5505 39.6309L38.4895 39.686C38.097 40.0405 37.691 40.5081 37.4023 41.0412C37.1161 41.5698 36.911 42.2288 37.0368 42.9246C37.1677 43.6484 37.6297 44.2671 38.3933 44.7373C39.1384 45.1961 40.1951 45.5325 41.6167 45.7363C43.1318 45.9535 44.9304 45.7182 46.7989 45.2389C48.6794 44.7566 50.6914 44.011 52.6576 43.1555C56.5802 41.4487 60.3828 39.2769 62.7003 37.7888C63.1236 37.5468 63.8751 37.2147 64.7137 37.0321C65.4338 36.8752 66.1467 36.844 66.7546 37.0106Z" fill="#009FDF"/>
<path fill-rule="evenodd" clip-rule="evenodd" d="M65.3114 47.5532L87.7824 59.4091V75.0229H85.7824V61.6704L79.9695 64.7373V76.2475L65.3068 83.7911L51.3878 76.2323V64.8704L42.4878 60.0121L65.3114 47.5532ZM53.3878 65.9621V75.0425L65.3321 81.529L77.9695 75.0273V65.7925L65.3114 72.471L53.3878 65.9621ZM84.6394 60.0121L65.3275 70.2012L46.662 60.0121L65.3275 49.823L84.6394 60.0121Z" fill="#009FDF"/>
</svg>
