<svg width="125" height="113" viewBox="0 0 125 113" fill="none" xmlns="http://www.w3.org/2000/svg">
<path d="M2 80.438L1.47264 79.5883L0.542436 80.1657L1.20148 81.04L2 80.438ZM25.039 111L24.2405 111.602L24.9044 112.483L25.7161 111.736L25.039 111ZM36.7936 100.186L37.4707 100.922L38.1363 100.309L37.5936 99.5857L36.7936 100.186ZM15.6353 71.9747L16.4353 71.3747L15.886 70.6422L15.108 71.125L15.6353 71.9747ZM17.9863 75.1092L17.1863 75.7092L17.7768 76.4966L18.5735 75.9187L17.9863 75.1092ZM55.1308 62.571L55.7555 61.7901L55.5469 61.6232L55.2829 61.5826L55.1308 62.571ZM62.6538 66.8027L62.8182 65.8163L62.6538 66.8027ZM88.9841 78.5573L89.3258 79.4971L88.9841 78.5573ZM123.778 63.9816L124.758 63.7855L124.712 63.554L124.567 63.3677L123.778 63.9816ZM120.957 69.1536L121.607 69.9129L120.957 69.1536ZM34.6778 97.3646L33.7834 96.9174L33.507 97.4702L33.8778 97.9646L34.6778 97.3646ZM1.20148 81.04L24.2405 111.602L25.8375 110.398L2.79852 79.836L1.20148 81.04ZM25.7161 111.736L37.4707 100.922L36.1166 99.4498L24.362 110.264L25.7161 111.736ZM15.108 71.125L1.47264 79.5883L2.52736 81.2876L16.1627 72.8243L15.108 71.125ZM18.7863 74.5092L16.4353 71.3747L14.8353 72.5747L17.1863 75.7092L18.7863 74.5092ZM18.5735 75.9187C21.2149 74.0023 25.5575 71.0762 29.9798 68.5399C32.1908 67.2719 34.4084 66.109 36.4345 65.2195C38.4762 64.3231 40.2595 63.7333 41.6195 63.5633L41.3714 61.5787C39.7223 61.7849 37.7284 62.4671 35.6305 63.3882C33.517 64.316 31.2326 65.5158 28.9848 66.805C24.4892 69.3833 20.0863 72.3502 17.399 74.2998L18.5735 75.9187ZM41.6195 63.5633C47.5348 62.8239 53.0208 63.2581 54.9788 63.5594L55.2829 61.5826C53.1659 61.2569 47.4928 60.8135 41.3714 61.5787L41.6195 63.5633ZM54.5061 63.3519C55.3179 64.0013 56.6692 64.9906 58.1136 65.8701C59.5221 66.7278 61.1544 67.5666 62.4894 67.7891L62.8182 65.8163C61.8962 65.6626 60.5507 65.0125 59.1538 64.1619C57.7927 63.333 56.511 62.3946 55.7555 61.7901L54.5061 63.3519ZM62.4894 67.7891C63.9551 68.0334 69.2136 68.3919 74.2097 68.7985C76.7355 69.0041 79.2194 69.2234 81.1854 69.4492C82.1696 69.5622 83.0113 69.6753 83.6581 69.7873C83.9818 69.8433 84.2455 69.8971 84.4479 69.9476C84.5487 69.9728 84.6277 69.9955 84.6871 70.0151C84.7165 70.0248 84.7386 70.0329 84.7544 70.0392C84.7706 70.0456 84.7768 70.0488 84.7754 70.048L85.6698 68.2592C85.2815 68.065 84.6489 67.929 83.9991 67.8165C83.2977 67.6952 82.413 67.577 81.4136 67.4622C79.4125 67.2325 76.9007 67.011 74.3719 66.8051C69.2591 66.389 64.1735 66.0422 62.8182 65.8163L62.4894 67.7891ZM88.6423 77.6175C87.767 77.9358 86.0498 78.1615 83.7051 78.2815C81.4036 78.3993 78.6201 78.4114 75.6965 78.3568C69.8514 78.2475 63.5005 77.8727 59.4392 77.5602L59.2858 79.5544C63.3743 79.8688 69.7653 80.2463 75.6592 80.3564C78.6051 80.4115 81.4402 80.4001 83.8073 80.2789C86.1312 80.1599 88.1323 79.9311 89.3258 79.4971L88.6423 77.6175ZM84.7754 70.048C85.2246 70.2727 86.2488 71.0456 87.302 72.1193C88.3515 73.1892 89.2794 74.4069 89.6643 75.4542L91.5415 74.7643C91.0092 73.3158 89.8431 71.8538 88.7298 70.7188C87.6203 69.5877 86.4128 68.6307 85.6698 68.2592L84.7754 70.048ZM89.6643 75.4542C89.8841 76.0524 89.8815 76.4697 89.7714 76.7496C89.6726 77.001 89.4092 77.3387 88.6423 77.6175L89.3258 79.4971C90.4522 79.0875 91.263 78.4217 91.6327 77.4814C91.9911 76.5697 91.8513 75.6072 91.5415 74.7643L89.6643 75.4542ZM90.9656 76.0411C93.3766 75.1026 100.01 71.5657 107.972 64.7408L106.67 63.2223C98.8346 69.9388 92.3922 73.3396 90.2401 74.1773L90.9656 76.0411ZM107.972 64.7408C111.731 61.519 115.003 60.9347 117.518 61.37C120.084 61.8141 122.016 63.3454 122.988 64.5955L124.567 63.3677C123.345 61.7967 120.999 59.9427 117.859 59.3993C114.67 58.8473 110.811 59.6735 106.67 63.2223L107.972 64.7408ZM122.797 64.1777C122.861 64.4983 122.76 66.2909 120.306 68.3944L121.607 69.9129C124.419 67.5027 125.008 65.0322 124.758 63.7855L122.797 64.1777ZM120.306 68.3944C118.676 69.7917 111.504 75.6591 104.532 81.1822C101.047 83.9426 97.6209 86.6095 94.9686 88.5841C93.6408 89.5726 92.5176 90.3795 91.6824 90.9362C91.2628 91.2158 90.9317 91.4217 90.6916 91.554C90.5705 91.6208 90.4901 91.6591 90.4438 91.6781C90.3648 91.7104 90.4452 91.6628 90.6029 91.6628V93.6628C90.8617 93.6628 91.0898 93.5747 91.2023 93.5287C91.3475 93.4692 91.5022 93.3909 91.6572 93.3055C91.9693 93.1334 92.354 92.8921 92.7915 92.6005C93.6704 92.0148 94.8263 91.1834 96.1629 90.1883C98.8394 88.1957 102.284 85.5142 105.773 82.75C112.75 77.2237 119.946 71.3366 121.607 69.9129L120.306 68.3944ZM90.6029 91.6628C90.0065 91.6628 89.4721 91.8376 88.9877 92.0222C88.4609 92.2229 88.0092 92.4268 87.3354 92.6568C86.0654 93.0901 84.1765 93.5435 80.9909 93.5435V95.5435C84.3879 95.5435 86.4956 95.0566 87.9813 94.5496C88.6853 94.3093 89.3011 94.043 89.6998 93.8911C90.1409 93.723 90.3899 93.6628 90.6029 93.6628V91.6628ZM80.9909 93.5435C77.707 93.5435 67.7664 93.1918 58.2055 93.0147C53.4421 92.9265 48.7841 92.8822 45.1359 92.9486C43.3134 92.9818 41.7284 93.0429 40.5023 93.1418C39.8901 93.1912 39.3524 93.2511 38.9121 93.3248C38.501 93.3936 38.077 93.4891 37.757 93.6491L38.6514 95.438C38.6494 95.439 38.6607 95.4333 38.6904 95.4228C38.7194 95.4126 38.7594 95.4001 38.8125 95.3861C38.9197 95.3577 39.0617 95.3276 39.2424 95.2974C39.6043 95.2368 40.0795 95.1824 40.663 95.1353C41.8283 95.0413 43.3656 94.9812 45.1723 94.9483C48.7825 94.8825 53.4107 94.9263 58.1685 95.0144C67.6501 95.19 77.6923 95.5435 80.9909 95.5435V93.5435ZM37.5936 99.5857L35.4778 96.7646L33.8778 97.9646L35.9936 100.786L37.5936 99.5857ZM37.757 93.6491C35.3888 94.8332 34.1495 96.1851 33.7834 96.9174L35.5722 97.8118C35.6763 97.6038 36.5058 96.5107 38.6514 95.438L37.757 93.6491Z" fill="#009FDF"/>
<path d="M88.5096 1.53783C88.8989 1.19137 89.4017 1 89.9226 1C90.4434 1 90.9462 1.19137 91.3356 1.53783C93.9458 3.85719 95.8638 6.85467 96.8771 10.1982C97.8904 13.5418 97.9594 17.1009 97.0766 20.4814C101.262 18.008 106.113 16.8981 110.956 17.3054C111.244 17.3291 111.524 17.4096 111.781 17.5423C112.037 17.675 112.265 17.8573 112.451 18.0786C112.637 18.2999 112.777 18.5559 112.863 18.8317C112.95 19.1076 112.981 19.3978 112.954 19.6857C112.545 24.1889 110.435 28.6656 107.51 32.1288C108.658 32.0554 109.81 32.0665 110.956 32.1618C111.244 32.1854 111.524 32.266 111.781 32.3987C112.037 32.5314 112.265 32.7136 112.451 32.9349C112.637 33.1563 112.777 33.4122 112.863 33.6881C112.95 33.9639 112.981 34.2542 112.954 34.5421C112.479 39.7672 110.07 44.6257 106.2 48.1632C102.33 51.7007 97.2785 53.6616 92.0379 53.6606H87.8072C82.5672 53.6608 77.5165 51.6996 73.647 48.1621C69.7775 44.6247 67.3689 39.7666 66.8941 34.5421C66.8683 34.2545 66.8996 33.9645 66.9863 33.6891C67.0729 33.4136 67.2132 33.158 67.3989 32.9371C67.5847 32.7161 67.8123 32.5342 68.0686 32.4017C68.3249 32.2692 68.6049 32.1888 68.8924 32.1651C70.0386 32.0686 71.1903 32.0565 72.3383 32.1288C69.4134 28.6656 67.303 24.1889 66.8974 19.6857C66.872 19.3984 66.9036 19.1089 66.9902 18.8338C67.0768 18.5588 67.2168 18.3035 67.4021 18.0827C67.5875 17.8619 67.8145 17.6798 68.0702 17.547C68.326 17.4142 68.6053 17.3332 68.8924 17.3087C73.7344 16.9011 78.5833 18.0098 82.7685 20.4814C81.8849 17.1012 81.9533 13.5422 82.966 10.1986C83.9787 6.85496 85.8963 3.85733 88.5063 1.53783H88.5096ZM89.9209 41.868C92.7414 37.952 96.6938 34.9964 101.245 33.3998C101.282 33.3696 101.32 33.341 101.36 33.314C105.32 30.6134 108.671 25.5986 109.518 20.5342C104.555 20.4054 99.7183 22.112 95.9324 25.3279C93.4295 27.4507 92.7403 29.3919 92.1237 31.1317C91.8994 31.759 91.6851 32.3632 91.3982 32.9409C91.2615 33.2156 91.0509 33.4467 90.7903 33.6082C90.5296 33.7697 90.2291 33.8553 89.9226 33.8553C89.616 33.8553 89.3155 33.7697 89.0548 33.6082C88.7942 33.4467 88.5836 33.2156 88.4469 32.9409C88.16 32.3632 87.9457 31.7623 87.7214 31.1317C87.1048 29.3919 86.4156 27.4507 83.9095 25.3279C80.1244 22.1127 75.289 20.4062 70.3268 20.5342C71.1743 25.6019 74.5246 30.6134 78.485 33.3107C78.5248 33.3386 78.5633 33.3683 78.6004 33.3998C83.1502 34.9968 87.1014 37.9524 89.9209 41.868ZM92.0379 50.3592C96.2561 50.3593 100.336 48.8514 103.542 46.1071C106.748 43.3627 108.87 39.5624 109.525 35.3906C105.842 35.2963 102.204 36.2113 99.0029 38.0365C95.8018 39.8618 93.1597 42.528 91.3619 45.7471C91.2189 46.0035 91.01 46.2171 90.757 46.3657C90.504 46.5144 90.2159 46.5927 89.9226 46.5927C89.6292 46.5927 89.3411 46.5144 89.0881 46.3657C88.8351 46.2171 88.6263 46.0035 88.4832 45.7471C86.6854 42.528 84.0433 39.8618 80.8423 38.0365C77.6412 36.2113 74.0029 35.2963 70.3202 35.3906C70.9757 39.5629 73.098 43.3637 76.3047 46.1082C79.5114 48.8526 83.5918 50.3601 87.8105 50.3592H92.0379ZM89.9244 29.211C92.7859 26.2873 94.3884 19.7877 94.3884 15.6943C94.3884 11.6009 92.7857 7.67059 89.9242 4.74681C87.0627 7.67059 85.46 11.6009 85.46 15.6943C85.46 19.7877 87.0628 26.2873 89.9244 29.211Z" stroke="#009FDF" stroke-width="1.2"/>
</svg>
