<svg width="133" height="115" viewBox="0 0 133 115" fill="none" xmlns="http://www.w3.org/2000/svg">
<path d="M113.344 14.7824C113.341 14.7763 113.34 14.7702 113.336 14.7641L113.333 14.7593C113.048 14.2687 112.639 13.8633 112.146 13.5848L88.8261 0.407504C88.3495 0.140284 87.8129 0 87.2671 0C86.7213 0 86.1846 0.140284 85.7081 0.407504L62.3881 13.5848C61.8945 13.8641 61.4842 14.2707 61.1996 14.7627C61.1982 14.7654 61.1961 14.767 61.1948 14.7697C61.1914 14.776 61.1895 14.783 61.1863 14.7894C60.9124 15.2704 60.7679 15.8148 60.7671 16.369V42.6283C60.7675 43.195 60.9178 43.7515 61.2026 44.2408C61.4875 44.73 61.8966 45.1345 62.3881 45.4128L85.7081 58.59C86.1634 58.8449 86.6741 58.9833 87.1953 58.9928C87.2173 58.9944 87.2382 58.9997 87.2605 59H87.2703C87.2968 59 87.3219 58.9941 87.3479 58.9923C87.866 58.9813 88.3734 58.8431 88.8261 58.5898L112.146 45.4125C112.638 45.1343 113.047 44.7299 113.332 44.2407C113.616 43.7515 113.767 43.195 113.767 42.6283V16.3693C113.766 15.8124 113.621 15.2652 113.344 14.7824Z" fill="white"/>
<path d="M113.344 14.7824C113.341 14.7763 113.34 14.7702 113.336 14.7641L113.333 14.7593C113.048 14.2687 112.639 13.8633 112.146 13.5848L88.8261 0.407504C88.3495 0.140284 87.8129 0 87.2671 0C86.7213 0 86.1846 0.140284 85.7081 0.407504L62.3881 13.5848C61.8945 13.8641 61.4842 14.2707 61.1996 14.7627C61.1982 14.7654 61.1961 14.767 61.1948 14.7697C61.1914 14.776 61.1895 14.783 61.1863 14.7894C60.9124 15.2704 60.7679 15.8148 60.7671 16.369V42.6283C60.7675 43.195 60.9178 43.7515 61.2026 44.2408C61.4875 44.73 61.8966 45.1345 62.3881 45.4128L85.7081 58.59C86.1634 58.8449 86.6741 58.9833 87.1953 58.9928C87.2173 58.9944 87.2382 58.9997 87.2605 59H87.2703C87.2968 59 87.3219 58.9941 87.3479 58.9923C87.866 58.9813 88.3734 58.8431 88.8261 58.5898L112.146 45.4125C112.638 45.1343 113.047 44.7299 113.332 44.2407C113.616 43.7515 113.767 43.195 113.767 42.6283V16.3693C113.766 15.8124 113.621 15.2652 113.344 14.7824Z" fill="#009FDF" fill-opacity="0.2"/>
<path d="M113.344 14.7824C113.341 14.7763 113.34 14.7702 113.336 14.7641L113.333 14.7593C113.048 14.2687 112.639 13.8633 112.146 13.5848L88.8261 0.407504C88.3495 0.140284 87.8129 0 87.2671 0C86.7213 0 86.1846 0.140284 85.7081 0.407504L62.3881 13.5848C61.8945 13.8641 61.4842 14.2707 61.1996 14.7627C61.1982 14.7654 61.1961 14.767 61.1948 14.7697C61.1914 14.776 61.1895 14.783 61.1863 14.7894C60.9124 15.2704 60.7679 15.8148 60.7671 16.369V42.6283C60.7675 43.195 60.9178 43.7515 61.2026 44.2408C61.4875 44.73 61.8966 45.1345 62.3881 45.4128L85.7081 58.59C86.1634 58.8449 86.6741 58.9833 87.1953 58.9928C87.2173 58.9944 87.2382 58.9997 87.2605 59H87.2703C87.2968 59 87.3219 58.9941 87.3479 58.9923C87.866 58.9813 88.3734 58.8431 88.8261 58.5898L112.146 45.4125C112.638 45.1343 113.047 44.7299 113.332 44.2407C113.616 43.7515 113.767 43.195 113.767 42.6283V16.3693C113.766 15.8124 113.621 15.2652 113.344 14.7824ZM86.7474 2.2635C86.9063 2.17442 87.0852 2.12765 87.2671 2.12765C87.449 2.12765 87.6279 2.17442 87.7868 2.2635L110.553 15.1282L100.292 20.984L76.7254 7.92653L86.7474 2.2635ZM87.5133 28.277L63.9974 15.1189L74.5524 9.15481L98.1302 22.2179L87.5133 28.277ZM63.4274 43.5565C63.2635 43.4638 63.1271 43.329 63.0321 43.1659C62.9371 43.0028 62.887 42.8172 62.8868 42.6283V16.9353L86.4533 30.1213L86.2227 56.4372L63.4274 43.5565ZM111.107 43.5565L88.3433 56.4191L88.4583 43.2702L88.5733 30.1213L99.1979 24.0579V36.0236C99.1979 36.3061 99.3096 36.5769 99.5084 36.7766C99.7072 36.9763 99.9768 37.0885 100.258 37.0885C100.539 37.0885 100.809 36.9763 101.007 36.7766C101.206 36.5769 101.318 36.3061 101.318 36.0236V22.848L111.647 16.9531V42.6283C111.647 42.8172 111.597 43.0028 111.502 43.1659C111.407 43.329 111.271 43.4638 111.107 43.5565Z" fill="#009FDF"/>
<path fill-rule="evenodd" clip-rule="evenodd" d="M124.855 60.1359C122.158 59.6692 118.66 60.2982 114.651 63.7348C106.977 70.3122 100.467 74.0145 97.4143 75.3896C97.5252 76.02 97.5059 76.6767 97.2576 77.3082C96.8731 78.2863 96.0282 78.9839 94.8418 79.4153C93.5827 79.8731 91.4637 80.1164 88.9918 80.2429C86.4767 80.3717 83.4634 80.3839 80.3314 80.3253C74.0653 80.2082 67.2702 79.8069 62.9234 79.4726L63.0767 77.4785C67.3965 77.8107 74.1514 78.2094 80.3687 78.3257C83.4784 78.3838 86.4401 78.3709 88.8895 78.2455C91.3823 78.1179 93.2174 77.8779 94.1583 77.5357C94.9852 77.235 95.2826 76.8656 95.3963 76.5764C95.5212 76.2587 95.5195 75.7977 95.2829 75.1537C94.8689 74.0273 93.8746 72.7246 92.7566 71.5849C91.6348 70.4412 90.5399 69.6135 90.0528 69.3699L90.0515 69.3693C90.0504 69.3688 90.0486 69.3679 90.046 69.3668C90.0412 69.3647 90.0345 69.3618 90.0256 69.3583C90.0074 69.3511 89.9827 69.3421 89.9505 69.3314C89.8854 69.31 89.7999 69.2854 89.6916 69.2583C89.4743 69.2041 89.1923 69.1466 88.8471 69.0868C88.1576 68.9675 87.2611 68.847 86.2141 68.7268C84.1223 68.4866 81.4799 68.2533 78.7939 68.0347C77.3276 67.9154 75.8407 67.7999 74.4235 67.69C70.7024 67.4011 67.4619 67.1496 66.3356 66.9619C64.9291 66.7275 63.2024 65.8415 61.7049 64.9296C60.2927 64.0696 58.964 63.1107 58.0899 62.4261C55.8097 62.1089 50.1782 61.711 44.1241 62.4677C42.6687 62.6497 40.7656 63.2798 38.5927 64.2338C36.4353 65.1809 34.075 66.4187 31.7225 67.7679C27.453 70.2166 23.2536 73.0066 20.4127 75.0257L36.777 96.8447C37.4762 96.1484 38.5479 95.3335 40.0528 94.581C40.384 94.4154 40.8268 94.3151 41.2634 94.242C41.7291 94.164 42.2989 94.1005 42.949 94.048C44.2509 93.9431 45.9349 93.8781 47.8725 93.8428C51.7508 93.7722 56.7033 93.8193 61.7686 93.9131C66.7277 94.005 71.7843 94.1411 76.0685 94.2563C80.5655 94.3774 84.2114 94.4755 86 94.4755C89.3944 94.4755 91.41 93.9923 92.7673 93.5291C93.2381 93.3684 93.609 93.219 93.9655 93.0753C94.1524 93.0001 94.3353 92.9264 94.5265 92.8535C95.0059 92.6708 95.5251 92.4998 96.0979 92.4779C96.1516 92.4545 96.233 92.4145 96.3464 92.3519C96.604 92.2099 96.9579 91.9899 97.4046 91.6922C98.2943 91.0993 99.4896 90.2404 100.902 89.189C103.723 87.0886 107.367 84.2522 111.073 81.3166C118.488 75.4432 126.115 69.2031 127.849 67.7162C130.155 65.74 130.528 64.0105 130.534 63.3708C129.444 62.0769 127.453 60.5856 124.855 60.1359ZM96.041 92.4999C96.0411 92.4997 96.0457 92.498 96.0544 92.4956C96.0451 92.499 96.0408 92.5002 96.041 92.4999ZM37.9929 98.4659C38.4465 97.9667 39.363 97.162 40.9473 96.3699C40.947 96.37 40.9508 96.3681 40.9594 96.3646C40.9624 96.3633 40.9658 96.3619 40.9697 96.3604C40.9769 96.3576 40.9856 96.3544 40.9961 96.3507C41.0288 96.3392 41.073 96.3254 41.1307 96.3102C41.2471 96.2793 41.4003 96.2469 41.5936 96.2146C41.981 96.1497 42.4883 96.0917 43.1097 96.0416C44.3508 95.9415 45.9871 95.8775 47.9089 95.8425C51.7492 95.7725 56.6718 95.8191 61.7315 95.9128C66.6323 96.0036 71.6725 96.139 75.9619 96.2542C80.4996 96.3761 84.197 96.4755 86 96.4755C89.6057 96.4755 91.8401 95.9587 93.4132 95.4219C93.9311 95.2451 94.402 95.0559 94.7848 94.9021C94.9546 94.8338 95.1071 94.7726 95.2386 94.7224C95.7091 94.5432 95.9829 94.4755 96.2215 94.4755C96.4836 94.4755 96.7164 94.3861 96.8349 94.3376C96.9861 94.2756 97.1483 94.1937 97.3121 94.1034C97.6417 93.9217 98.049 93.6661 98.5138 93.3564C99.447 92.7345 100.675 91.8512 102.096 90.7932C104.942 88.6748 108.604 85.8238 112.315 82.8844C119.734 77.0078 127.385 70.7479 129.151 69.2348C132.13 66.6815 132.74 64.0758 132.481 62.7794L132.434 62.5479L132.289 62.3616C130.998 60.7011 128.516 58.7398 125.196 58.1652C121.825 57.5818 117.74 58.4528 113.349 62.2162C105.885 68.6142 99.607 72.1863 96.7262 73.5057C96.0852 72.3038 95.119 71.1371 94.1844 70.1843C93.0063 68.9833 91.7281 67.9715 90.9473 67.5811C90.544 67.3794 89.8807 67.236 89.1881 67.1161C88.444 66.9874 87.5046 66.8618 86.4422 66.7398C84.3153 66.4956 81.6451 66.2602 78.9562 66.0413C77.4092 65.9154 75.8638 65.7954 74.4112 65.6826C70.7619 65.3993 67.6979 65.1614 66.6644 64.9891C65.671 64.8235 64.231 64.1262 62.7451 63.2214C61.2951 62.3384 59.93 61.3388 59.1247 60.6946L58.9161 60.5277L58.6521 60.4871C56.4059 60.1415 50.379 59.6703 43.876 60.4832C42.1314 60.7012 40.0178 61.4239 37.7887 62.4025C35.5439 63.388 33.1168 64.6627 30.7275 66.033C26.3718 68.5311 22.0977 71.3725 19.2123 73.4252L16.7507 70.1429L0.54248 80.2032L26.3654 114.458L40.3427 101.599L37.9929 98.4659ZM3.45761 80.7477L26.6347 111.493L37.6574 101.352L16.2494 72.808L3.45761 80.7477Z" fill="#009FDF"/>
</svg>
