<svg width="126" height="87" viewBox="0 0 126 87" fill="none" xmlns="http://www.w3.org/2000/svg">
<path fill-rule="evenodd" clip-rule="evenodd" d="M55.3769 26.71C55.3769 23.0077 58.5704 19.9193 62.6203 19.9193C66.6702 19.9193 69.8637 23.0077 69.8637 26.71C69.8637 30.4123 66.6702 33.5006 62.6203 33.5006C58.5704 33.5006 55.3769 30.4123 55.3769 26.71ZM62.6203 18.1085C57.6693 18.1085 53.5661 21.9114 53.5661 26.71C53.5661 31.5085 57.6693 35.3115 62.6203 35.3115C67.5714 35.3115 71.6745 31.5085 71.6745 26.71C71.6745 21.9114 67.5714 18.1085 62.6203 18.1085ZM49.4915 44.8184C49.4915 42.3182 51.5184 40.2913 54.0186 40.2913H71.6743C74.1746 40.2913 76.2015 42.3182 76.2015 44.8184V60.6633C76.2015 61.6634 75.3907 62.4742 74.3906 62.4742H71.6743V48.8928H69.8635V85.5624H71.6743V64.285H74.3906C76.3908 64.285 78.0123 62.6635 78.0123 60.6633V44.8184C78.0123 41.3181 75.1747 38.4805 71.6743 38.4805H54.0186C50.5183 38.4805 47.6807 41.3181 47.6807 44.8184V60.6633C47.6807 62.6635 49.3021 64.285 51.3024 64.285H54.0186V85.5624H55.8295V48.8928H54.0186V62.4742H51.3024C50.3023 62.4742 49.4915 61.6634 49.4915 60.6633V44.8184ZM61.7147 63.3796V85.5624H63.5255V63.3796H61.7147Z" fill="#009FDF"/>
<path fill-rule="evenodd" clip-rule="evenodd" d="M97.479 8.60151C97.479 4.89919 100.672 1.81084 104.722 1.81084C108.772 1.81084 111.966 4.89919 111.966 8.60151C111.966 12.3038 108.772 15.3922 104.722 15.3922C100.672 15.3922 97.479 12.3038 97.479 8.60151ZM104.722 0C99.7713 0 95.6681 3.80296 95.6681 8.60151C95.6681 13.4001 99.7713 17.203 104.722 17.203C109.673 17.203 113.777 13.4001 113.777 8.60151C113.777 3.80296 109.673 0 104.722 0ZM85.9854 29.6004C85.9854 26.1385 88.8291 23.3321 92.3369 23.3321H117.108C120.615 23.3321 123.459 26.1385 123.459 29.6004V51.5394C123.459 52.9242 122.322 54.0468 120.918 54.0468H117.108V35.2418H114.567V86.0151H117.108V56.5541H120.918C123.725 56.5541 126 54.309 126 51.5394V29.6004C126 24.7537 122.019 20.8247 117.108 20.8247H92.3369C87.4259 20.8247 83.4448 24.7537 83.4448 29.6004V51.5394C83.4448 54.309 85.7197 56.5541 88.526 56.5541H92.3369V86.0151H94.8775V35.2418H92.3369V54.0468H88.526C87.1229 54.0468 85.9854 52.9242 85.9854 51.5394V29.6004ZM103.134 55.3004V86.0151H105.675V55.3004H103.134Z" fill="#009FDF"/>
<path fill-rule="evenodd" clip-rule="evenodd" d="M20.971 1.81084C16.9212 1.81084 13.7277 4.89919 13.7277 8.60151C13.7277 12.3038 16.9212 15.3922 20.971 15.3922C25.0209 15.3922 28.2144 12.3038 28.2144 8.60151C28.2144 4.89919 25.0209 1.81084 20.971 1.81084ZM11.9168 8.60151C11.9168 3.80296 16.02 0 20.971 0C25.9221 0 30.0253 3.80296 30.0253 8.60151C30.0253 13.4001 25.9221 17.203 20.971 17.203C16.02 17.203 11.9168 13.4001 11.9168 8.60151Z" fill="#009FDF"/>
<path fill-rule="evenodd" clip-rule="evenodd" d="M10.9739 23.541C8.80245 23.541 6.93682 25.0828 6.52783 27.2154L1.86089 51.5502C1.53969 53.225 2.82322 54.778 4.52854 54.778H7.43018L11.9366 34.2176L11.9378 34.2122C12.0446 33.7248 12.5256 33.4157 13.0133 33.521C13.501 33.6264 13.8116 34.1064 13.7078 34.5945L13.7066 34.5999L9.18068 55.8719C9.14451 56.0419 9.062 56.1922 8.94809 56.3107L6.70418 66.5485H34.8149L32.7835 55.9562C32.773 55.9229 32.7643 55.8887 32.7576 55.8537L28.6833 34.5766C28.5892 34.0855 28.911 33.6109 29.4021 33.5168C29.8932 33.4227 30.3675 33.7445 30.4617 34.2355L34.4014 54.778H37.5634C39.3414 54.778 40.6399 53.0982 40.1921 51.3776L33.8285 26.9278C33.3093 24.9332 31.5084 23.541 29.4473 23.541H10.9739ZM34.7487 56.5889H37.5634C40.5267 56.5889 42.691 53.7892 41.9446 50.9215L35.5809 26.4717C34.8541 23.6792 32.3328 21.7301 29.4473 21.7301H10.9739C7.93386 21.7301 5.32198 23.8887 4.74939 26.8743L0.0824563 51.2091C-0.452869 54.0004 1.68633 56.5889 4.52854 56.5889H7.03328L4.69439 67.2601C4.63569 67.5279 4.7015 67.8079 4.87337 68.0215C5.04524 68.2351 5.30464 68.3594 5.57881 68.3594H11.9168V85.5624H13.7276V68.3594H20.5183V85.5624H22.3291V68.3594H28.6671V85.5624H30.4779V68.3594H35.9104C36.1805 68.3594 36.4364 68.2389 36.6084 68.0307C36.7804 67.8226 36.8505 67.5486 36.7997 67.2834L34.7487 56.5889Z" fill="#009FDF"/>
</svg>
