<svg width="34" height="114" viewBox="0 0 34 114" fill="none" xmlns="http://www.w3.org/2000/svg">
<path fill-rule="evenodd" clip-rule="evenodd" d="M8.35605 51.0371C8.35605 47.0762 11.7726 43.7722 16.1053 43.7722C20.4381 43.7722 23.8546 47.0762 23.8546 51.0371C23.8546 54.998 20.4381 58.3021 16.1053 58.3021C11.7726 58.3021 8.35605 54.998 8.35605 51.0371ZM16.1053 41.8348C10.8085 41.8348 6.41873 45.9034 6.41873 51.0371C6.41873 56.1708 10.8085 60.2394 16.1053 60.2394C21.4022 60.2394 25.7919 56.1708 25.7919 51.0371C25.7919 45.9034 21.4022 41.8348 16.1053 41.8348ZM2.05988 70.4103C2.05988 67.7354 4.2283 65.567 6.90318 65.567H25.7921C28.4669 65.567 30.6354 67.7354 30.6354 70.4103V87.3619C30.6354 88.4318 29.768 89.2992 28.698 89.2992H25.7921V74.7693H23.8547V114H25.7921V91.2365H28.698C30.8379 91.2365 32.5727 89.5018 32.5727 87.3619V70.4103C32.5727 66.6655 29.5369 63.6297 25.7921 63.6297H6.90318C3.15835 63.6297 0.122559 66.6655 0.122559 70.4103V87.3619C0.122559 89.5018 1.85729 91.2365 3.9972 91.2365H6.90318V114H8.8405V74.7693H6.90318V89.2992H3.9972C2.92725 89.2992 2.05988 88.4318 2.05988 87.3619V70.4103ZM15.1368 90.2678V114H17.0741V90.2678H15.1368Z" fill="#009FDF"/>
<path fill-rule="evenodd" clip-rule="evenodd" d="M28.1791 0.595392C29.7192 1.25987 31.1322 2.49618 32.3374 4.41758C33.6577 6.52249 33.7092 8.97869 33.0636 11.4307C32.4201 13.875 31.0604 16.4207 29.3944 18.8522C26.0593 23.7197 21.3423 28.3497 18.0157 31.1325L17.3694 31.6731L16.7036 31.1567C13.0503 28.323 7.88577 23.6291 4.28223 18.7417C2.48365 16.3024 1.02484 13.7496 0.371636 11.3081C-0.287112 8.84582 -0.147947 6.38747 1.42327 4.33716C2.83679 2.49263 4.41024 1.3264 6.05612 0.704018C7.69998 0.0823998 9.3518 0.0275241 10.8874 0.305277C13.4678 0.77203 15.765 2.18329 17.3289 3.5325C18.8704 2.13625 21.1171 0.658876 23.5875 0.168623C25.0607 -0.123739 26.6395 -0.068823 28.1791 0.595392ZM18.8802 4.95118C20.222 3.77014 22.0756 2.60119 23.9946 2.22036C25.135 1.99405 26.2709 2.05028 27.3504 2.51601C28.4293 2.98149 29.5397 3.89393 30.5654 5.52908C31.476 6.98073 31.5968 8.78635 31.0408 10.8981C30.4828 13.0174 29.2671 15.3373 27.6689 17.6698C24.6827 22.028 20.4951 26.2387 17.3193 28.9793C13.8176 26.1835 9.20573 21.8946 5.96582 17.5004C4.23764 15.1565 2.94887 12.8478 2.39231 10.7675C1.8413 8.70792 2.03021 6.98403 3.08356 5.6095C4.29459 4.0292 5.56441 3.12626 6.79598 2.66055C8.02957 2.19407 9.28937 2.14192 10.5151 2.36362C13.0019 2.81344 15.2793 4.38206 16.6037 5.71148L16.6231 5.73095L19.924 8.71319C20.3526 9.10041 21.0139 9.06687 21.4012 8.63827C21.7884 8.20967 21.7548 7.54831 21.3262 7.16108L18.8802 4.95118Z" fill="#009FDF"/>
</svg>
