<svg width="128" height="110" viewBox="0 0 128 110" fill="none" xmlns="http://www.w3.org/2000/svg">
<path d="M109.363 14.2067C109.36 14.2008 109.358 14.1949 109.355 14.189L109.352 14.1844C109.078 13.713 108.685 13.3233 108.211 13.0556L85.7996 0.391632C85.3416 0.13482 84.8258 0 84.3013 0C83.7768 0 83.2611 0.13482 82.8031 0.391632L60.3914 13.0556C59.917 13.3241 59.5227 13.7149 59.2491 14.1877C59.2479 14.1903 59.2458 14.1918 59.2445 14.1944C59.2412 14.2005 59.2395 14.2072 59.2364 14.2133C58.9731 14.6756 58.8343 15.1989 58.8335 15.7315V40.9679C58.8339 41.5126 58.9784 42.0474 59.2521 42.5176C59.5258 42.9878 59.919 43.3766 60.3914 43.644L82.8031 56.308C83.2406 56.553 83.7315 56.6859 84.2323 56.6951C84.2535 56.6966 84.2736 56.7017 84.295 56.702H84.3044C84.3299 56.702 84.3541 56.6964 84.379 56.6946C84.8769 56.684 85.3646 56.5512 85.7996 56.3077L108.211 43.6437C108.684 43.3764 109.077 42.9877 109.351 42.5176C109.624 42.0474 109.769 41.5126 109.769 40.9679V15.7317C109.769 15.1966 109.629 14.6706 109.363 14.2067Z" fill="white"/>
<path d="M109.363 14.2067C109.36 14.2008 109.358 14.1949 109.355 14.189L109.352 14.1844C109.078 13.713 108.685 13.3233 108.211 13.0556L85.7996 0.391632C85.3416 0.13482 84.8258 0 84.3013 0C83.7768 0 83.2611 0.13482 82.8031 0.391632L60.3914 13.0556C59.917 13.3241 59.5227 13.7149 59.2491 14.1877C59.2479 14.1903 59.2458 14.1918 59.2445 14.1944C59.2412 14.2005 59.2395 14.2072 59.2364 14.2133C58.9731 14.6756 58.8343 15.1989 58.8335 15.7315V40.9679C58.8339 41.5126 58.9784 42.0474 59.2521 42.5176C59.5258 42.9878 59.919 43.3766 60.3914 43.644L82.8031 56.308C83.2406 56.553 83.7315 56.6859 84.2323 56.6951C84.2535 56.6966 84.2736 56.7017 84.295 56.702H84.3044C84.3299 56.702 84.3541 56.6964 84.379 56.6946C84.8769 56.684 85.3646 56.5512 85.7996 56.3077L108.211 43.6437C108.684 43.3764 109.077 42.9877 109.351 42.5176C109.624 42.0474 109.769 41.5126 109.769 40.9679V15.7317C109.769 15.1966 109.629 14.6706 109.363 14.2067ZM83.8019 2.17534C83.9546 2.08973 84.1265 2.04478 84.3013 2.04478C84.4762 2.04478 84.6481 2.08973 84.8008 2.17534L106.68 14.539L96.8193 20.1667L74.1702 7.6178L83.8019 2.17534ZM84.5379 27.1756L61.938 14.53L72.0819 8.79824L94.7414 21.3525L84.5379 27.1756ZM61.3902 41.86C61.2327 41.7709 61.1016 41.6413 61.0103 41.4846C60.919 41.3278 60.8708 41.1495 60.8707 40.9679V16.2756L83.5192 28.9481L83.2977 54.239L61.3902 41.86ZM107.212 41.86L85.3356 54.2216L85.4461 41.5849L85.5567 28.9481L95.7675 23.1209V34.6206C95.7675 34.892 95.8748 35.1523 96.0658 35.3442C96.2569 35.5361 96.516 35.6439 96.7862 35.6439C97.0564 35.6439 97.3155 35.5361 97.5065 35.3442C97.6976 35.1523 97.8049 34.892 97.8049 34.6206V21.9581L107.732 16.2928V40.9679C107.732 41.1495 107.683 41.3278 107.592 41.4846C107.501 41.6413 107.37 41.7709 107.212 41.86Z" fill="#009FDF"/>
<path fill-rule="evenodd" clip-rule="evenodd" d="M120.425 57.7936C117.834 57.3451 114.472 57.9496 110.619 61.2523C103.244 67.5736 96.9872 71.1316 94.0533 72.4531C94.16 73.059 94.1414 73.6901 93.9027 74.2971C93.5332 75.237 92.7212 75.9075 91.581 76.3221C90.371 76.7621 88.3345 76.9959 85.9589 77.1175C83.5417 77.2412 80.6458 77.2529 77.6357 77.1967C71.6138 77.0841 65.0834 76.6985 60.9058 76.3771L61.0532 74.4607C65.2047 74.78 71.6965 75.1632 77.6717 75.2749C80.6602 75.3307 83.5065 75.3184 85.8606 75.1979C88.2562 75.0753 90.0199 74.8445 90.9242 74.5157C91.7188 74.2268 92.0047 73.8717 92.1139 73.5938C92.234 73.2884 92.2324 72.8454 92.0049 72.2265C91.6071 71.1439 90.6515 69.892 89.577 68.7966C88.4989 67.6976 87.4467 66.902 86.9786 66.668L86.9773 66.6674C86.9763 66.6669 86.9745 66.6661 86.972 66.665C86.9674 66.6629 86.961 66.6602 86.9524 66.6568C86.9349 66.6499 86.9112 66.6412 86.8802 66.631C86.8177 66.6103 86.7355 66.5867 86.6314 66.5607C86.4225 66.5086 86.1515 66.4533 85.8198 66.3959C85.1572 66.2813 84.2956 66.1654 83.2894 66.0499C81.279 65.8191 78.7396 65.5949 76.1582 65.3848C74.749 65.2701 73.32 65.1591 71.958 65.0534C68.3819 64.7759 65.2676 64.5341 64.1852 64.3537C62.8334 64.1284 61.174 63.277 59.7348 62.4006C58.3776 61.5741 57.1007 60.6525 56.2606 59.9946C54.0692 59.6898 48.657 59.3073 42.8387 60.0346C41.44 60.2095 39.6111 60.8151 37.5227 61.7319C35.4494 62.6422 33.181 63.8317 30.9202 65.1284C26.817 67.4817 22.7811 70.163 20.0509 72.1034L35.7778 93.0726C36.4498 92.4034 37.4797 91.6203 38.926 90.8971C39.2444 90.738 39.6699 90.6416 40.0894 90.5713C40.537 90.4964 41.0846 90.4353 41.7094 90.3849C42.9606 90.284 44.579 90.2216 46.4411 90.1877C50.1684 90.1198 54.928 90.1651 59.796 90.2553C64.5619 90.3435 69.4216 90.4743 73.5389 90.5851C77.8607 90.7014 81.3646 90.7957 83.0836 90.7957C86.3458 90.7957 88.2828 90.3313 89.5873 89.8861C90.0397 89.7317 90.3962 89.5881 90.7389 89.4501C90.9184 89.3777 91.0942 89.3069 91.278 89.2369C91.7388 89.0613 92.2377 88.897 92.7882 88.8759C92.8398 88.8534 92.918 88.815 93.0271 88.7549C93.2746 88.6184 93.6147 88.4069 94.044 88.1208C94.899 87.551 96.0478 86.7256 97.4051 85.7151C100.117 83.6965 103.618 80.9706 107.18 78.1493C114.306 72.5047 121.636 66.5076 123.303 65.0787C125.519 63.1794 125.877 61.5173 125.883 60.9025C124.836 59.659 122.922 58.2258 120.425 57.7936ZM92.7335 88.8971C92.7336 88.8968 92.7381 88.8952 92.7464 88.8929C92.7375 88.8962 92.7333 88.8973 92.7335 88.8971ZM36.9464 94.6307C37.3822 94.151 38.2631 93.3776 39.7856 92.6163C39.7854 92.6164 39.789 92.6146 39.7973 92.6112C39.8002 92.61 39.8035 92.6087 39.8072 92.6072C39.8141 92.6045 39.8225 92.6014 39.8326 92.5978C39.864 92.5868 39.9065 92.5736 39.9619 92.5589C40.0738 92.5293 40.221 92.4981 40.4068 92.467C40.7791 92.4047 41.2667 92.3489 41.8639 92.3008C43.0566 92.2046 44.6292 92.1431 46.4761 92.1095C50.1669 92.0422 54.8977 92.087 59.7604 92.177C64.4703 92.2642 69.3141 92.3944 73.4364 92.5051C77.7974 92.6223 81.3509 92.7178 83.0836 92.7178C86.5489 92.7178 88.6963 92.2211 90.2081 91.7052C90.7058 91.5354 91.1583 91.3535 91.5262 91.2057C91.6894 91.1401 91.836 91.0812 91.9624 91.033C92.4145 90.8607 92.6777 90.7957 92.907 90.7957C93.1588 90.7957 93.3826 90.7098 93.4965 90.6632C93.6418 90.6036 93.7977 90.5249 93.9551 90.4381C94.2718 90.2635 94.6634 90.0179 95.11 89.7202C96.0068 89.1225 97.1872 88.2736 98.5529 87.2568C101.288 85.221 104.807 82.481 108.373 79.656C115.503 74.0083 122.857 67.9923 124.554 66.5381C127.417 64.0842 128.003 61.5801 127.754 60.3341L127.709 60.1117L127.57 59.9326C126.329 58.3368 123.943 56.4519 120.753 55.8996C117.513 55.339 113.587 56.176 109.368 59.7929C102.194 65.9417 96.1606 69.3747 93.392 70.6426C92.776 69.4876 91.8474 68.3663 90.9492 67.4507C89.817 66.2964 88.5886 65.324 87.8382 64.9488C87.4506 64.755 86.8132 64.6171 86.1475 64.502C85.4325 64.3782 84.5296 64.2576 83.5086 64.1403C81.4646 63.9056 78.8984 63.6793 76.3141 63.469C74.8274 63.348 73.3422 63.2327 71.9462 63.1243C68.439 62.852 65.4943 62.6233 64.5012 62.4578C63.5464 62.2987 62.1625 61.6285 60.7345 60.7589C59.341 59.9103 58.029 58.9496 57.2551 58.3305L57.0546 58.1702L56.8009 58.1311C54.6422 57.799 48.85 57.3461 42.6003 58.1274C40.9237 58.3369 38.8924 59.0314 36.7501 59.9719C34.5928 60.9191 32.2601 62.1441 29.964 63.461C25.7779 65.8618 21.6703 68.5926 18.8973 70.5653L16.5315 67.4109L0.95459 77.0793L25.7718 110L39.2046 97.6418L36.9464 94.6307ZM3.75618 77.6026L26.0305 107.15L36.6239 97.4043L16.0498 69.9721L3.75618 77.6026Z" fill="#009FDF"/>
</svg>
