<svg width="117" height="111" viewBox="0 0 117 111" fill="none" xmlns="http://www.w3.org/2000/svg">
<path fill-rule="evenodd" clip-rule="evenodd" d="M2.65057 17.2106V56.2301C2.65056 57.5069 3.03178 59.1337 3.76019 61.0535C4.48406 62.9615 5.52771 65.0998 6.79873 67.382C9.34084 71.9464 12.7548 77.0193 16.2285 81.871C19.1931 86.0116 22.1887 89.9739 24.709 93.3077C25.1406 93.8784 25.5581 94.4308 25.9593 94.9624C27.3285 96.7774 28.5101 98.3568 29.3934 99.5996C29.8349 100.221 30.2081 100.767 30.4955 101.221C30.7723 101.658 31.0051 102.066 31.1275 102.392C31.8512 104.322 32.209 106.239 32.3872 107.664C32.4608 108.253 32.5043 108.762 32.5299 109.159H50.0956C50.2538 104.724 49.9938 97.9552 48.7254 91.0769C47.3659 83.7043 44.8732 76.3504 40.6237 71.5697C34.1449 64.2811 28.2031 58.3071 24.2698 54.3526C22.8653 52.9405 21.7169 51.7859 20.8917 50.9209C19.6247 49.874 18.5293 49.3937 17.5806 49.2187C16.6227 49.0419 15.7419 49.163 14.8883 49.4261C14.1282 49.6605 13.4215 50.4462 13.1485 51.6518C12.8814 52.8315 13.0665 54.3159 14.0022 55.7195C16.7614 59.8583 19.6295 64.0645 22.2069 67.5965C24.8009 71.1512 27.051 73.9531 28.582 75.3383L27.3468 76.7035C25.656 75.1737 23.3036 72.2226 20.7198 68.6817C18.1193 65.1181 15.2343 60.8865 12.4704 56.7407C11.2584 54.9226 10.9731 52.923 11.353 51.2453C11.6161 50.0833 12.2175 49.0234 13.0947 48.3295C12.5279 47.606 12.1498 46.7646 11.8992 45.9801C11.5222 44.7997 11.3953 43.6284 11.3953 42.8828V42.8609L11.3964 42.839C11.5479 39.6563 11.525 34.5519 10.964 29.6165C10.6835 27.1492 10.2708 24.7443 9.68611 22.6523C9.09749 20.5462 8.35355 18.8277 7.44978 17.6775C6.47676 16.4391 5.68834 15.7677 5.08535 15.442C4.50493 15.1284 4.14281 15.1555 3.9166 15.2367C3.65877 15.3292 3.39119 15.5601 3.14582 15.9596C2.91951 16.328 2.7521 16.7774 2.65057 17.2106ZM14.841 47.5285C15.7666 47.2976 16.7916 47.201 17.9147 47.4083C19.2414 47.653 20.6325 48.3083 22.1102 49.5397L22.1509 49.5736L22.1874 49.612C22.9835 50.4478 24.1198 51.5903 25.5233 53.0015C29.4541 56.9536 35.481 63.0131 41.9996 70.3466C46.5869 75.5073 49.157 83.265 50.5359 90.7431C51.9197 98.2471 52.1296 105.615 51.8962 110.127L51.851 111H30.7259V110.08L30.7259 110.074L30.7256 110.048C30.7253 110.024 30.7247 109.987 30.7235 109.937C30.721 109.837 30.7159 109.688 30.7056 109.496C30.685 109.112 30.6436 108.558 30.5604 107.892C30.3934 106.556 30.0608 104.791 29.4037 103.039C29.3536 102.905 29.2124 102.636 28.9397 102.205C28.6777 101.791 28.3259 101.276 27.8928 100.666C27.0267 99.4476 25.8603 97.888 24.4896 96.0712C24.0902 95.5418 23.6738 94.991 23.243 94.4212C20.7231 91.0881 17.7114 87.1046 14.7316 82.9427C11.244 78.0716 7.78289 72.9327 5.19035 68.2778C3.89403 65.9502 2.80543 63.727 2.0389 61.7066C1.2769 59.6982 0.809554 57.8299 0.80957 56.2301V17.0113L0.830003 16.9159C0.961417 16.3026 1.20089 15.6085 1.57714 14.996C1.95023 14.3886 2.50535 13.7872 3.29459 13.5039C4.11545 13.2092 5.02477 13.3168 5.96031 13.8222C6.87327 14.3153 7.84531 15.2011 8.89739 16.5401C10.0187 17.9672 10.8435 19.9538 11.4592 22.1568C12.0788 24.3739 12.506 26.8822 12.7932 29.4086C13.3661 34.4488 13.3905 39.6415 13.2364 42.9037C13.2389 43.4818 13.3433 44.4505 13.653 45.4199C13.9189 46.2524 14.3094 47.0031 14.841 47.5285Z" fill="#009FDF"/>
<path fill-rule="evenodd" clip-rule="evenodd" d="M115.114 17.2106V56.2301C115.114 57.5069 114.732 59.1337 114.004 61.0535C113.28 62.9615 112.236 65.0998 110.965 67.382C108.423 71.9464 105.009 77.0193 101.536 81.871C98.5711 86.0116 95.5755 89.9739 93.0551 93.3077C92.6236 93.8784 92.206 94.4308 91.8049 94.9624C90.4356 96.7774 89.2541 98.3568 88.3708 99.5996C87.9293 100.221 87.5561 100.767 87.2686 101.221C86.9918 101.658 86.7591 102.066 86.6366 102.392C85.9129 104.322 85.5551 106.239 85.377 107.664C85.3033 108.253 85.2599 108.762 85.2343 109.159H67.6686C67.5104 104.724 67.7704 97.9552 69.0387 91.0769C70.3982 83.7043 72.891 76.3504 77.1405 71.5697C83.6193 64.2811 89.5611 58.3071 93.4943 54.3526C94.8988 52.9405 96.0472 51.7859 96.8725 50.9209C98.1394 49.874 99.2349 49.3937 100.184 49.2187C101.141 49.0419 102.022 49.163 102.876 49.4261C103.636 49.6605 104.343 50.4462 104.616 51.6518C104.883 52.8315 104.698 54.3159 103.762 55.7195C101.003 59.8583 98.1346 64.0645 95.5573 67.5965C92.9633 71.1512 90.7132 73.9531 89.1822 75.3383L90.4174 76.7035C92.1081 75.1737 94.4605 72.2226 97.0444 68.6817C99.6448 65.1181 102.53 60.8865 105.294 56.7407C106.506 54.9226 106.791 52.923 106.411 51.2453C106.148 50.0833 105.547 49.0234 104.669 48.3295C105.236 47.606 105.614 46.7646 105.865 45.9801C106.242 44.7997 106.369 43.6284 106.369 42.8828V42.8609L106.368 42.839C106.216 39.6563 106.239 34.5519 106.8 29.6165C107.081 27.1492 107.493 24.7443 108.078 22.6523C108.667 20.5462 109.411 18.8277 110.314 17.6775C111.287 16.4391 112.076 15.7677 112.679 15.442C113.259 15.1284 113.621 15.1555 113.848 15.2367C114.105 15.3292 114.373 15.5601 114.618 15.9596C114.845 16.328 115.012 16.7774 115.114 17.2106ZM102.923 47.5285C101.998 47.2976 100.973 47.201 99.8495 47.4083C98.5228 47.653 97.1317 48.3083 95.654 49.5397L95.6133 49.5736L95.5767 49.612C94.7807 50.4478 93.6444 51.5903 92.2408 53.0015C88.31 56.9536 82.2831 63.0131 75.7645 70.3466C71.1772 75.5073 68.6072 83.265 67.2282 90.7431C65.8445 98.2471 65.6346 105.615 65.868 110.127L65.9131 111H87.0383V110.08L87.0383 110.074L87.0385 110.048C87.0388 110.024 87.0394 109.987 87.0407 109.937C87.0432 109.837 87.0482 109.688 87.0585 109.496C87.0791 109.112 87.1205 108.558 87.2038 107.892C87.3708 106.556 87.7034 104.791 88.3604 103.039C88.4106 102.905 88.5518 102.636 88.8245 102.205C89.0865 101.791 89.4382 101.276 89.8714 100.666C90.7374 99.4476 91.9039 97.888 93.2746 96.0712C93.674 95.5418 94.0904 94.991 94.5212 94.4212C97.0411 91.0881 100.053 87.1046 103.033 82.9427C106.52 78.0716 109.981 72.9327 112.574 68.2778C113.87 65.9502 114.959 63.727 115.725 61.7066C116.487 59.6982 116.955 57.8299 116.955 56.2301V17.0113L116.934 16.9159C116.803 16.3026 116.563 15.6085 116.187 14.996C115.814 14.3886 115.259 13.7872 114.47 13.5039C113.649 13.2092 112.739 13.3168 111.804 13.8222C110.891 14.3153 109.919 15.2011 108.867 16.5401C107.745 17.9672 106.921 19.9538 106.305 22.1568C105.685 24.3739 105.258 26.8822 104.971 29.4086C104.398 34.4488 104.374 39.6415 104.528 42.9037C104.525 43.4818 104.421 44.4505 104.111 45.4199C103.845 46.2524 103.455 47.0031 102.923 47.5285Z" fill="#009FDF"/>
<path d="M67.8549 48.8661H47.9067V34.9071H33.9478V14.959H47.9067V1H67.8549V14.959H81.8139V34.9071H67.8549V48.8661Z" stroke="#009FDF" stroke-width="2" stroke-linecap="round" stroke-linejoin="round"/>
</svg>
